<svg xmlns="http://www.w3.org/2000/svg" xml:space="preserve" width="900.623" height="175.551" viewBox="0 0 900.623 175.551"><g style="display:inline"><g aria-label="AcQuity Legal" style="font-size:16.5976px;stroke-width:1.38313"><path d="M214.597 365.83h-35.765l-8.724 29.659 11.34 4.361v1.745h-26.17v-1.745l11.341-4.361 34.02-118.637h2.618l36.637 120.381 10.468 2.617v1.745h-36.637v-1.745l10.467-2.617zm-34.893-3.315h33.846l-17.446-57.748zM287 322.213q-3.315 0-6.63 2.094-3.14 1.919-5.757 6.455T270.25 342.8q-1.57 7.502-1.57 18.668t1.57 18.668q1.745 7.502 4.536 12.212 2.792 4.536 6.281 6.455 3.664 1.92 7.677 1.92 4.536 0 8.548-1.745t7.153-4.71q3.14-2.967 5.06-7.154 2.093-4.187 2.791-9.072h2.617q-.698 5.583-3.14 10.468-2.268 4.71-5.932 8.2t-8.549 5.408q-4.71 2.094-10.293 2.094-6.804 0-13.085-2.792-6.106-2.966-10.817-8.374-4.71-5.583-7.502-13.434-2.617-8.025-2.617-18.144 0-10.12 2.617-17.97 2.792-8.025 7.328-13.434 4.536-5.583 10.293-8.374 5.758-2.966 12.038-2.966 4.187 0 7.328 1.396 3.315 1.395 5.583 2.966 2.617 1.919 4.536 4.361.698-2.617 2.791-4.885 2.268-2.268 4.187-2.966h2.617q-.349 2.268-.523 4.71-.175 2.094-.349 4.537v10.119q.174 2.617.349 4.71.174 2.443.523 4.711h-2.617q-3.314-12.561-9.77-19.366-6.28-6.804-12.91-6.804m122.125 18.32q0 14.654-3.14 26.169-3.14 11.34-8.374 19.365-5.06 8.026-11.69 12.562-6.629 4.536-13.433 5.583 3.315 1.919 5.932 5.234 2.617 3.49 4.71 6.804 2.268 3.315 4.013 5.583 1.919 2.442 3.664 2.442 1.919 0 3.14-1.744 1.221-1.57 1.221-6.107 0-3.663-1.047-6.28-1.046-2.443-2.442-4.188-1.396-1.57-2.791-2.442-1.222-.872-1.57-1.047l14.829-.872q1.221 1.221 2.093 2.966.873 1.395 1.57 3.315t.698 4.187q0 2.617-1.395 5.234t-3.838 4.71q-2.268 2.268-5.409 3.49-3.14 1.395-6.804 1.395-7.502 0-12.038-2.791-4.536-2.617-7.677-5.932t-5.931-6.106q-2.792-2.617-6.63-2.617-1.745 0-3.14.523-1.396.524-2.443 1.221-1.221.698-2.268 1.745l-1.745-1.745q2.617-3.314 6.63-5.582t7.328-2.268q-6.63-1.57-12.736-6.281-6.107-4.885-10.817-12.736t-7.677-18.668q-2.791-10.991-2.791-25.123 0-16.05 3.49-27.914 3.663-12.038 9.42-19.89 5.932-8.025 13.26-11.863 7.327-4.013 14.83-4.013 7.501 0 14.829 4.013 7.327 3.838 13.085 11.864 5.931 7.85 9.42 19.889 3.664 11.863 3.664 27.914m-16.574 0q0-17.97-2.268-29.66-2.093-11.864-5.757-18.842-3.49-6.979-7.851-9.77-4.362-2.792-8.549-2.792t-8.549 2.792-8.025 9.77q-3.49 6.978-5.757 18.842-2.094 11.69-2.094 29.66t2.094 29.833q2.268 11.689 5.757 18.667 3.664 6.979 8.025 9.77 4.362 2.792 8.55 2.792 4.186 0 8.548-2.792t7.85-9.77q3.665-6.978 5.758-18.667 2.268-11.864 2.268-29.834m95.084-14.83v71.53l10.468 2.617v1.745h-24.426v-10.468q-1.919 3.664-4.885 6.63-2.442 2.442-6.28 4.361-3.664 2.094-8.898 2.094t-9.77-1.92q-4.362-1.918-7.677-5.233-3.314-3.49-5.234-8.2-1.744-4.885-1.744-10.817V325.7l-10.468-2.616v-1.745h34.02v1.745l-9.595 2.617v52.34q0 12.386 3.838 17.62 4.013 5.06 9.247 5.06 4.187 0 7.327-2.443 3.315-2.442 5.583-5.408 2.617-3.315 4.536-7.851v-59.318l-9.595-2.617v-1.745h34.02v1.745zm33.148 71.53v-71.53l-10.468-2.617v-1.745h24.425v75.892l10.468 2.617v1.745h-34.893v-1.745zm14.83-95.956q0 3.315-2.792 6.107-2.617 2.617-5.932 2.617t-6.106-2.617q-2.617-2.792-2.617-6.107 0-3.314 2.617-5.931 2.791-2.792 6.106-2.792t5.932 2.792q2.791 2.617 2.791 5.931m64.551 20.064v3.49h-20.063v55.654q0 10.642 3.838 15.527 3.838 4.71 8.374 4.71 5.932 0 9.945-4.361 4.187-4.536 4.885-13.085h2.617q-.698 9.945-6.106 15.527-5.234 5.409-13.085 5.409-11.166 0-17.796-6.455-6.63-6.63-6.63-17.098V324.83h-14.829v-3.489h14.83v-20.064l13.957-9.595v29.659zm45.361 95.083q-2.791 8.2-5.408 13.609-2.617 5.583-5.583 8.897-2.792 3.49-5.932 4.885-2.966 1.396-6.63 1.396-1.046 0-1.919-.174-.872 0-1.744-.175-.873-.174-1.57-.523l-2.617-13.085q.697.349 1.57.523.872.175 1.744.175.873.174 1.92.174 10.467 0 15.178-4.012 4.885-3.839 7.502-11.69l4.885-14.83-30.183-75.891-10.467-2.617v-1.745h34.893v1.745l-9.596 2.617 22.157 55.654 17.97-53.91-11.34-4.361v-1.745h26.17v1.745l-11.34 4.361z" style="font-size:174.465px;font-family:Oranienbaum;fill:#58728c" transform="matrix(.964 0 0 1.03735 -149.688 -287.192)"/><path d="M758.927 398.106h31.404q0-7.328 2.966-13.609t7.502-10.817h1.745q-.35 2.268-.524 4.711-.174 2.094-.349 4.536v10.642q.175 2.443.35 4.362.174 2.094.523 3.664H733.63v-1.745l10.468-2.617V283.831l-10.468-2.617v-1.745h35.765v1.745l-10.468 2.617zm72.403-36.638q0 11.166 1.57 18.668 1.745 7.502 4.362 12.212 2.791 4.536 6.106 6.455 3.49 1.92 7.153 1.92 4.536 0 8.55-1.745 4.012-1.745 7.152-4.71 3.14-2.967 5.06-7.154 2.093-4.187 2.791-9.072h2.617q-.698 5.583-3.14 10.468-2.268 4.71-5.932 8.2t-8.549 5.408q-4.71 2.094-10.293 2.094-6.63 0-12.562-2.792-5.932-2.966-10.642-8.374-4.536-5.583-7.328-13.434-2.617-8.025-2.617-18.144 0-10.468 2.617-18.493 2.617-8.026 6.804-13.26 4.362-5.408 9.945-8.2 5.757-2.791 12.038-2.791 6.28 0 11.864 2.791 5.757 2.792 9.944 8.2 4.362 5.234 6.979 13.26t2.617 18.493zm15.702-40.127q-2.617 0-5.234 1.745-2.617 1.57-4.885 5.757t-3.838 11.34q-1.396 6.979-1.745 17.796h31.404q-.35-10.817-1.92-17.796-1.395-7.153-3.663-11.34t-4.885-5.757q-2.617-1.745-5.234-1.745m76.765 54.084q2.966 0 5.757-1.396 2.791-1.57 5.06-4.885 2.267-3.314 3.489-8.374 1.395-5.234 1.395-12.387t-1.395-12.213q-1.222-5.233-3.49-8.374-2.268-3.315-5.06-4.885-2.79-1.57-5.756-1.57t-5.758 1.57-5.06 4.885q-2.267 3.14-3.663 8.374-1.221 5.06-1.221 12.213t1.221 12.387q1.396 5.06 3.664 8.374t5.06 4.885q2.79 1.396 5.757 1.396m3.489 67.344q6.455 0 11.69-1.92 5.233-1.744 8.722-4.885 3.664-3.14 5.583-7.327t1.92-8.723q0-16.575-16.575-16.575h-27.914q-9.945 0-14.655-4.012-4.536-4.013-4.536-9.945 0-4.012 1.919-6.978 2.093-3.14 4.536-5.583 2.966-2.617 6.63-4.885-3.49-2.268-6.107-5.583-2.442-2.966-4.361-7.328-1.745-4.361-1.745-10.642t2.268-11.69q2.442-5.408 6.63-9.42 4.187-4.013 9.944-6.281t12.562-2.268q2.966 0 5.757.523 2.791.524 5.06 1.222 2.616.697 4.884 1.744 1.396-1.919 3.315-3.489 1.745-1.396 4.362-2.443 2.617-1.046 6.28-1.046 5.932 0 9.247 2.268 3.49 2.093 5.409 4.71 2.093 3.14 2.791 6.979l-13.085 2.617q-.523-3.49-1.57-6.455-.872-2.443-2.442-4.536-1.57-2.094-3.839-2.094-1.919 0-3.489.872-1.57.873-2.442 1.745-1.222 1.221-1.92 2.617 6.63 4.013 9.77 10.293 3.315 6.281 3.315 14.132 0 6.28-2.442 11.69-2.268 5.408-6.455 9.42-4.188 4.013-9.945 6.281t-12.561 2.268q-3.664 0-6.63-.523-2.966-.698-5.234-1.57-2.617-.873-4.71-2.269-2.443 1.57-4.362 3.315-1.745 1.396-3.14 3.315-1.222 1.92-1.222 3.838 0 2.617 2.443 4.362 2.442 1.57 9.77 1.57h27.914q10.468 0 16.923 6.804 6.63 6.63 6.63 17.796 0 6.63-2.617 12.212-2.443 5.758-6.979 9.945-4.536 4.361-10.991 6.804-6.455 2.442-14.306 2.442-9.77 0-17.098-2.268-7.153-2.093-11.863-5.931-4.71-3.664-7.153-8.724-2.268-5.06-2.268-10.991 0-2.268.523-4.187.523-1.745 1.221-2.966.698-1.396 1.745-2.443l13.085 5.234q-.524 1.222-.873 2.617-.872 2.617-.872 5.234 0 9.247 6.106 15.179 6.281 5.932 17.447 5.932m95.083-83.918q-15.178 0-22.506 6.804-7.153 6.63-7.153 18.493 0 7.851 3.839 12.213t8.374 4.362q4.187 0 7.327-2.443 3.315-2.442 5.583-5.408 2.617-3.315 4.536-7.851zm-13.084-37.51q-5.234 0-8.724 3.664-3.489 3.489-3.489 9.42v2.443q.174 1.047.349 1.92.174.872.523 1.744l-13.957 3.49q-.349-.524-.523-1.396-.175-.873-.35-1.92v-2.79q0-3.665 1.745-6.98 1.745-3.489 5.06-6.106 3.49-2.791 8.2-4.361 4.885-1.745 11.166-1.745 12.561 0 19.714 7.153 7.328 7.153 7.328 19.017v52.34l10.468 2.616v1.745h-24.426v-10.468q-1.919 3.664-4.885 6.63-2.442 2.442-6.28 4.361-3.664 2.094-8.898 2.094-12.562 0-19.017-5.932-6.28-5.932-6.28-15.876 0-4.885 2.616-9.77 2.792-4.885 8.2-8.724 5.583-3.838 14.132-6.106 8.549-2.442 20.412-2.442v-10.468q0-13.085-4.012-18.32-3.838-5.233-9.072-5.233m55.828 75.892V283.831l-10.468-2.617v-1.745h24.425v117.764l10.468 2.617v1.745h-34.893v-1.745z" style="font-size:174.465px;font-family:Oranienbaum;fill:#86ad3f" transform="matrix(.964 0 0 1.03735 -149.688 -287.192)"/></g></g></svg>